<svg id="Layer_1" data-name="Layer 1" xmlns="http://www.w3.org/2000/svg" viewBox="0 0 320 320"><defs><style>.cls-1{fill:#010101;}</style></defs><title>logo</title><path class="cls-1" d="M9,62.6c0-10,7.17-14.36,16-9.71l100,52.57a16.26,16.26,0,0,1,6.14,23.67L113,156.83c-5.46,8.37-17.85,13.19-27.53,10.72l-59-15.08C16.86,150,9,139.8,9,129.81V62.6Z"/><path class="cls-1" d="M233.7,97.63c-7.76,6.29-6,12,4,12.73L302,115c10,0.71,13-5.09,6.78-12.9L288.45,76.64A18.06,18.06,0,0,0,263,73.88Z"/><path class="cls-1" d="M184.65,178.69c7-7.15,4.57-12-5.34-10.79L63.69,182.09c-9.92,1.22-11.16,6.65-2.77,12.07l51.38,33.18c8.39,5.42,21,4,27.95-3.15Z"/><path class="cls-1" d="M208,289.17a15.82,15.82,0,0,0,23.27-6.45L304.67,133.4c4.41-9,1.3-11.64-6.91-5.94L148.84,230.94c-8.2,5.7-8.05,14.8.34,20.22Z"/></svg>