<svg id="Layer_1" data-name="Layer 1" xmlns="http://www.w3.org/2000/svg" viewBox="0 0 1418.27 820"><defs><style>.cls-1,.cls-3,.cls-4,.cls-6{fill:none;}.cls-1{stroke:#000;stroke-width:11.13px;}.cls-1,.cls-4,.cls-5{stroke-linecap:round;stroke-linejoin:round;}.cls-2{fill:#010101;}.cls-3,.cls-4,.cls-5,.cls-6{stroke:#010101;}.cls-3,.cls-6{stroke-miterlimit:10;}.cls-3{stroke-width:4px;}.cls-4,.cls-5{stroke-width:9.28px;}.cls-5{fill:#fff;}.cls-6{stroke-width:7.42px;}</style></defs><title>logo-case</title><path d="M718.76,142.73c11.51,6.65,11.57,17.39.13,24s-30,6.57-41.56-.08-11.57-17.39-.13-24S707.25,136.08,718.76,142.73Z" transform="translate(-15.08 72.81)"/><path d="M828.92,153.23l-64.17-37.05c-37.07-21.4-97-21.51-133.81-.24l-63.77,36.82c-1.62.93-1.61,2.45,0,3.39l64.17,37.05c37.07,21.4,97,21.51,133.81.24l63.77-36.82C830.55,155.69,830.54,154.17,828.92,153.23ZM654.27,180c-24.33-14-24.45-36.75-.28-50.71s63.5-13.89,87.82.16,24.45,36.75.28,50.71S678.6,194,654.27,180Z" transform="translate(-15.08 72.81)"/><polyline class="cls-1" points="1080.31 420.42 1054.47 369.01 965.42 354.09 933.83 372.33 959.68 423.74 1004.2 431.2 978.35 379.8 1022.87 387.26 1048.72 438.67 1017.12 456.91 928.08 441.98 902.23 390.57"/><polygon class="cls-2" points="1297.59 536.15 1322.76 550.68 1342.77 539.13 1297.47 512.97 1252.45 538.96 1272.58 550.59 1297.59 536.15"/><polygon class="cls-2" points="1298.1 628.85 1272.93 614.32 1252.92 625.87 1298.22 652.03 1343.24 626.04 1323.11 614.41 1298.1 628.85"/><path class="cls-2" d="M1398.12,489.56l-30.2-17.44-20,11.55,8.48,4.9a74,74,0,0,1-20.81,2.83l-0.13.07,0.42,16.38c19.65,0,38.46-4.48,52.24-12.52Z" transform="translate(-15.08 72.81)"/><path class="cls-2" d="M1255,507.64h0l-0.34-16.4c-19.59,0-38.35,4.45-52.12,12.45l-10,5.78,30.2,17.44,20-11.55-8.48-4.9A73.92,73.92,0,0,1,1255,507.64Z" transform="translate(-15.08 72.81)"/><path class="cls-2" d="M1403.15,492.47l-20,11.55,8.48,4.9a74,74,0,0,1-20.81,2.83l-0.13.07,0.42,16.38c19.65,0,38.46-4.48,52.24-12.52l10-5.78Z" transform="translate(-15.08 72.81)"/><path class="cls-2" d="M1290.19,528h0l-0.34-16.4c-19.59,0-38.35,4.45-52.12,12.45l-10,5.78,30.2,17.44,20-11.55-8.48-4.9A73.92,73.92,0,0,1,1290.19,528Z" transform="translate(-15.08 72.81)"/><polygon class="cls-2" points="334 439.12 427.35 439.29 485.5 405.71 438.68 378.67 334 439.12"/><polygon class="cls-2" points="269.62 401.95 363.33 402.33 421.13 368.54 374.3 341.5 269.62 401.95"/><path class="cls-2" d="M314,346c4.82-2.78,12.65-2.77,17.5,0s4.87,7.32.05,10.11-12.65,2.77-17.5,0S309.14,348.81,314,346Z" transform="translate(-15.08 72.81)"/><polyline class="cls-3" points="307.91 423.77 371.74 407.18 430.4 373.32"/><path class="cls-4" d="M715.85,512.1l67,0.12,0.09,16.28c0,4.5-6.27,8.13-14.06,8.12h0c-7.79,0-14.12-3.67-14.14-8.17l-0.09-16.28" transform="translate(-15.08 72.81)"/><path class="cls-4" d="M710.74,519.26l47.51,27.43-19.88,11.48c-5.49,3.17-14.42,3.15-19.94,0h0c-5.52-3.19-5.55-8.34-.06-11.51l19.88-11.48" transform="translate(-15.08 72.81)"/><path class="cls-4" d="M698.33,522.21l0.21,38.67-28.2-.05c-7.79,0-14.12-3.67-14.14-8.17h0c0-4.5,6.27-8.13,14.06-8.12l28.2,0.05" transform="translate(-15.08 72.81)"/><path class="cls-4" d="M685.89,519.22l-47.21,27.26-20-11.55c-5.52-3.19-5.55-8.34-.06-11.51h0c5.49-3.17,14.42-3.15,19.94,0l20,11.55" transform="translate(-15.08 72.81)"/><path class="cls-4" d="M680.71,512l-67-.12-0.09-16.28c0-4.5,6.27-8.13,14.06-8.12h0c7.79,0,14.12,3.67,14.14,8.17L641.93,512" transform="translate(-15.08 72.81)"/><path class="cls-4" d="M685.81,504.87l-47.51-27.43L658.18,466c5.49-3.17,14.42-3.15,19.94,0h0c5.52,3.19,5.55,8.34.06,11.51L658.31,489" transform="translate(-15.08 72.81)"/><path class="cls-4" d="M698.22,501.92L698,463.25l28.2,0.05c7.79,0,14.12,3.67,14.14,8.17h0c0,4.5-6.27,8.13-14.06,8.12l-28.2-.05" transform="translate(-15.08 72.81)"/><path class="cls-4" d="M710.67,504.92l47.21-27.26,20,11.55c5.52,3.19,5.55,8.34.06,11.51h0c-5.49,3.17-14.42,3.15-19.94,0l-20-11.55" transform="translate(-15.08 72.81)"/><path class="cls-5" d="M708.24,517.86c-5.49,3.17-14.42,3.15-19.94,0s-5.55-8.34-.06-11.51,14.42-3.15,19.94,0S713.73,514.69,708.24,517.86Z" transform="translate(-15.08 72.81)"/><path class="cls-2" d="M405.77-13.26c3.9-2.25,4-5.87,0-8.13s-10.75-2.55-14.65-.3c-2.61,1.51-3.51,3.58-3,5.29L366.37-3.82l7.79,4.5L396-11.9C398.91-11.61,403.16-11.75,405.77-13.26Z" transform="translate(-15.08 72.81)"/><path class="cls-2" d="M369.14-24c-0.89,3.67-4.2,7.76-6.21,10.06L343-25.39c10.68-4.23,20.59-4.12,31.22-3.69,13.52,0.55,28.62,1.29,46.62-9.1L385.31-58.7c-9,5.2-14.21,11.34-15.87,18.23l9.68,1a16.91,16.91,0,0,1,6.12-10L405.16-38c-11.68,4.81-20.09,3.83-30.72,3.4-13.52-.55-28.12-1.58-46.12,8.81L363.86-5.27c7-4,13.66-11,15.32-17.91Z" transform="translate(-15.08 72.81)"/><path class="cls-2" d="M429.17-3.51c-2.09-8.23,2-16,13-22.36L435.07-30c-13,7.51-16.74,14.79-16.19,23.56-15.2-.32-29.81,3-40.81,9.35L385.18,7c9-5.2,23.84-8.35,38.1-7.15L430,0.38Z" transform="translate(-15.08 72.81)"/><path class="cls-6" d="M447.48,10c-31.21,18-82,17.93-113.38-.21s-31.57-47.44-.36-65.46,82-17.93,113.38.21S478.69-8,447.48,10Z" transform="translate(-15.08 72.81)"/><path class="cls-2" d="M1054.78,718.39c-6.56,3.79-17.24,3.77-23.84,0s-6.64-10-.07-13.77,17.24-3.77,23.84,0S1061.35,714.6,1054.78,718.39Z" transform="translate(-15.08 72.81)"/><path class="cls-2" d="M1085.72,670.15l-67-38.67c-31,17.9-29.38,32-24.13,52.58l0.29-.15C1024.91,685.92,1054.72,688,1085.72,670.15Z" transform="translate(-15.08 72.81)"/><path class="cls-2" d="M994.28,684.27c-30-2-61.54-3.14-90.54,13.6l67,38.67C999.72,719.8,999.53,704.87,994.28,684.27Z" transform="translate(-15.08 72.81)"/><polygon class="cls-2" points="975.48 820 1025.4 791.18 1015.83 785.65 965.91 814.48 975.48 820"/><path class="cls-2" d="M1018.87,731.67" transform="translate(-15.08 72.81)"/><path class="cls-2" d="M1024,766.52" transform="translate(-15.08 72.81)"/><path class="cls-2" d="M49.74,99c4.3-2.48,9.18-1.84,11,1.53l20.61,38c1.83,3.37-1.59,6.68-7.55,7.4L54,148.29c-6,.71-13.41-1.19-16.54-4.22L18.56,125.64c-3.13-3-2-7.47,2.26-10Z" transform="translate(-15.08 72.81)"/><path class="cls-2" d="M131.75,163.74c-6.07-.38-7.75,1.5-3.74,4.17l25.85,17.21c4,2.67,7.83,2,8.49-1.51l2.15-11.4c0.66-3.5-3.77-6.67-9.83-7Z" transform="translate(-15.08 72.81)"/><path class="cls-2" d="M75.63,171.62c6.1,0,7.15-1.84,2.33-4L21.79,142.22c-4.82-2.18-7.69-1.14-6.39,2.31l8,21.09c1.3,3.44,7.36,6.24,13.45,6.2Z" transform="translate(-15.08 72.81)"/><path class="cls-2" d="M119.7,175.21" transform="translate(-15.08 72.81)"/><path class="cls-2" d="M38.22,204.91c1.3,3.44,7.09,5.34,12.85,4.22l96-18.76c5.77-1.13,5.57-2.57-.44-3.2l-109-11.52c-6-.63-9.85,1.66-8.55,5.11Z" transform="translate(-15.08 72.81)"/><path class="cls-2" d="M26.72,174.49" transform="translate(-15.08 72.81)"/><path class="cls-2" d="M43.22,216.27" transform="translate(-15.08 72.81)"/></svg>