<svg id="Layer_1" data-name="Layer 1" xmlns="http://www.w3.org/2000/svg" viewBox="0 0 320 320"><defs><style>.cls-1{fill:#010101;}</style></defs><title>logo</title><polygon class="cls-1" points="67 67 125.13 67 125.13 20.51 20.51 20.51 20.51 125.13 67 125.13 67 67"/><polygon class="cls-1" points="253 253 194.87 253 194.87 299.49 299.49 299.49 299.49 194.87 253 194.87 253 253"/><path class="cls-1" d="M218.12,20.51H148.37V67H168A74.86,74.86,0,0,1,149.6,96.88v0.29l33.25,32.49a120.66,120.66,0,0,0,35.28-85.9V20.51Z"/><path class="cls-1" d="M89,223.24h0L55.79,190.63a120.66,120.66,0,0,0-35.28,85.61v23.25H90.25V253H70.67A74.74,74.74,0,0,1,89,223.24Z"/><path class="cls-1" d="M229.75,20.51V67h19.59A74.86,74.86,0,0,1,231,96.88v0.29l33.25,32.49a120.66,120.66,0,0,0,35.28-85.9V20.51H229.75Z"/><path class="cls-1" d="M170.35,223.24h0l-33.19-32.61a120.66,120.66,0,0,0-35.28,85.61v23.25h69.75V253H152A74.74,74.74,0,0,1,170.35,223.24Z"/></svg>