<svg id="Layer_1" data-name="Layer 1" xmlns="http://www.w3.org/2000/svg" viewBox="0 0 320 320"><defs><style>.cls-1{fill:none;}.cls-1,.cls-2{stroke:#010101;stroke-linecap:round;stroke-linejoin:round;stroke-width:20px;}.cls-2{fill:#fff;}</style></defs><title>logo</title><path class="cls-1" d="M181.87,139.14l77.58-77.58,32.66,32.66a23.1,23.1,0,0,1,0,32.66h0a23.1,23.1,0,0,1-32.66,0L226.78,94.23"/><path class="cls-1" d="M190.3,159.5H300V205.7a23.1,23.1,0,0,1-23.1,23.1h0a23.1,23.1,0,0,1-23.1-23.1V159.5"/><path class="cls-1" d="M181.87,179.86l77.58,77.58L226.78,290.1a23.1,23.1,0,0,1-32.66,0h0a23.1,23.1,0,0,1,0-32.66l32.66-32.66"/><path class="cls-1" d="M161.51,188.29V298H115.32a23.1,23.1,0,0,1-23.1-23.1h0a23.1,23.1,0,0,1,23.1-23.1h46.19"/><path class="cls-1" d="M141.16,179.86L63.58,257.43,30.92,224.77a23.1,23.1,0,0,1,0-32.66h0a23.1,23.1,0,0,1,32.66,0l32.66,32.66"/><path class="cls-1" d="M132.73,159.5H23V113.3a23.1,23.1,0,0,1,23.1-23.1h0a23.1,23.1,0,0,1,23.1,23.1V159.5"/><path class="cls-1" d="M141.16,139.14L63.58,61.57,96.25,28.9a23.1,23.1,0,0,1,32.66,0h0a23.1,23.1,0,0,1,0,32.66L96.25,94.23"/><path class="cls-1" d="M161.51,130.71V21h46.19a23.1,23.1,0,0,1,23.1,23.1h0a23.1,23.1,0,0,1-23.1,23.1H161.51"/><circle class="cls-2" cx="161.51" cy="159.58" r="23.1"/></svg>