<svg xmlns="http://www.w3.org/2000/svg" viewBox="0 0 124 124"><path d="M62 .4C28.1.4.5 28 .5 61.9s27.6 61.5 61.5 61.5 61.5-27.6 61.5-61.5S95.9.4 62 .4zm59.1 61.5c0 2-.1 4.1-.3 6.1l-10.4-1.3c.2-1.6.2-3.2.2-4.8 0-1.5-.1-3-.2-4.5l10.4-1.2c.2 1.9.3 3.8.3 5.7zm-118.2 0c0-2 .1-4 .3-6l10.4 1.3c-.1 1.5-.2 3.1-.2 4.7s.1 3.1.2 4.7L3.2 67.8c-.2-1.9-.3-3.9-.3-5.9zm105-15.9l9.8-3.7c1.3 3.7 2.2 7.5 2.8 11.5L110 55c-.4-3.1-1.1-6.1-2.1-9zm.2 15.9c0 3.1-.3 6.1-.9 9l-10.3-2.4c.4-2.1.6-4.3.6-6.6s-.2-4.6-.7-6.9l10.4-2.3c.6 3 .9 6.1.9 9.2zM62 95.1c-18.3 0-33.1-14.9-33.1-33.1S43.7 28.8 62 28.8s33.1 14.9 33.1 33.1S80.2 95.1 62 95.1zm1.1 13V97.5c4.7-.1 9.1-1.2 13.2-3l4.6 9.6c-5.5 2.4-11.5 3.8-17.8 4zm-20.2-4.2l4.6-9.6c4.1 1.8 8.5 2.9 13.2 3.1V108c-6.3-.1-12.4-1.6-17.8-4.1zm-27.1-42c0-3.2.3-6.3 1-9.3L27.1 55c-.5 2.3-.7 4.6-.7 7 0 2.2.2 4.4.6 6.5l-10.4 2.4c-.5-3-.8-6-.8-9zm45-46.1v10.6c-4.6.2-9 1.2-13 2.9l-4.6-9.6c5.4-2.3 11.3-3.7 17.6-3.9zm20.1 4.1l-4.6 9.5c-4-1.8-8.5-2.8-13.1-3V15.8c6.3.2 12.3 1.6 17.7 4.1zM107 43.8c-1.2-2.9-2.6-5.6-4.3-8.2l8.7-6c2.2 3.3 4 6.8 5.5 10.5l-9.9 3.7zm-.3 6.6l-10.4 2.3c-1.2-4.4-3.2-8.5-5.9-12.1l8.3-6.6c3.7 4.9 6.4 10.4 8 16.4zM88.9 38.8c-2.9-3.4-6.5-6.2-10.4-8.3l4.6-9.5c5.4 2.8 10.2 6.7 14.1 11.3l-8.3 6.5zm-3.1-19.2l4.9-9.3c3.5 1.9 6.7 4.2 9.7 6.8l-7 7.8c-2.3-1.9-4.8-3.7-7.6-5.3zm-2.1-1.1C81 17.1 78.1 16 75 15.2L77.5 5c3.8 1.1 7.5 2.5 11 4.3l-4.8 9.2zm-11-3.9c-3-.7-6.2-1.1-9.4-1.2V2.9c4.1.1 8.1.6 11.9 1.5l-2.5 10.2zm-11.8-1.2c-3.2.1-6.3.4-9.3 1.1L49.2 4.2C53 3.4 56.9 2.9 61 2.8v10.6zM49.3 15c-3 .8-6 1.9-8.7 3.3L35.7 9c3.5-1.8 7.2-3.2 11.1-4.2L49.3 15zm-10.8 4.4c-2.7 1.5-5.3 3.3-7.7 5.3l-7-7.9c3-2.6 6.3-4.8 9.8-6.7l4.9 9.3zm2.5 1.4l4.6 9.6c-4 2.1-7.5 4.9-10.5 8.3l-8.3-6.6c3.9-4.6 8.7-8.5 14.2-11.3zM25.3 33.9l8.3 6.6c-2.7 3.6-4.7 7.6-5.9 12l-10.4-2.4c1.6-5.9 4.3-11.4 8-16.2zM17 43.5l-9.8-3.7c1.5-3.7 3.4-7.2 5.5-10.5l8.7 6c-1.7 2.6-3.2 5.3-4.4 8.2zm-.8 2.3c-1 2.9-1.8 5.9-2.2 9.1L3.5 53.6C4 49.6 5 45.7 6.3 42l9.9 3.8zM13.9 69c.5 3.1 1.2 6.2 2.2 9.1l-9.8 3.7C5 78.1 4 74.2 3.5 70.2L13.9 69zM17 80.3c1.2 2.9 2.7 5.7 4.4 8.3l-8.7 6c-2.2-3.3-4-6.8-5.5-10.5l9.8-3.8zm.2-7.2l10.3-2.3c1.1 4.5 3.1 8.6 5.8 12.2L25 89.5c-3.6-4.8-6.3-10.4-7.8-16.4zm17.6 11.7c2.9 3.5 6.5 6.4 10.5 8.5l-4.6 9.6c-5.5-2.8-10.3-6.7-14.2-11.4l8.3-6.7zm3.6 19.6l-4.9 9.3c-3.5-1.9-6.7-4.2-9.7-6.7l7-7.9c2.3 2 4.9 3.8 7.6 5.3zm2.2 1.1c2.8 1.4 5.7 2.5 8.7 3.3L46.8 119c-3.9-1-7.6-2.4-11.1-4.2l4.9-9.3zm11 3.9c3 .7 6.1 1 9.2 1.1V121c-4-.1-8-.6-11.8-1.4l2.6-10.2zm11.7 1.1c3.2-.1 6.2-.5 9.2-1.1l2.5 10.2c-3.8.9-7.7 1.3-11.7 1.4v-10.5zm11.5-1.8c3-.8 5.9-1.9 8.7-3.3l4.9 9.3c-3.5 1.8-7.2 3.2-11 4.2l-2.6-10.2zm10.8-4.4c2.7-1.5 5.3-3.3 7.6-5.3l7 7.9c-3 2.5-6.2 4.8-9.7 6.7l-4.9-9.3zm-2.5-1.3l-4.6-9.6c4-2.1 7.6-5 10.6-8.5l8.3 6.6c-4 4.7-8.8 8.6-14.3 11.5zm15.7-13.3L90.5 83c2.7-3.6 4.7-7.7 5.8-12.2l10.3 2.4c-1.4 6.1-4.1 11.6-7.8 16.5zm8.1-9.4l9.8 3.7c-1.5 3.7-3.3 7.2-5.5 10.4l-8.6-6c1.7-2.5 3.1-5.2 4.3-8.1zm.9-2.2c1-2.9 1.8-5.9 2.2-9l10.4 1.3c-.6 4-1.5 7.8-2.8 11.5l-9.8-3.8zm2.2-50.5l-8.7 6c-1.8-2.5-3.9-4.8-6.1-7l7-7.9c2.9 2.7 5.5 5.7 7.8 8.9zm-88-9.2l7 7.9c-2.3 2.1-4.4 4.5-6.2 7l-8.6-6c2.3-3.2 4.9-6.2 7.8-8.9zm-7.9 78.1l8.7-6c1.8 2.5 3.9 4.8 6.2 7l-7 7.9c-2.9-2.7-5.6-5.7-7.9-8.9zm87.9 8.8l-7-7.9c2.3-2.1 4.3-4.4 6.1-6.9l8.6 6c-2.2 3.2-4.8 6.1-7.7 8.8z"/></svg>